<?xml version="1.0" standalone="no"?>
<!DOCTYPE svg PUBLIC "-//W3C//DTD SVG 20010904//EN"
 "http://www.w3.org/TR/2001/REC-SVG-20010904/DTD/svg10.dtd">
<svg version="1.0" xmlns="http://www.w3.org/2000/svg"
 width="500.000000pt" height="500.000000pt" viewBox="0 0 500.000000 500.000000"
 preserveAspectRatio="xMidYMid meet">
<metadata>
Created by potrace 1.11, written by Peter Selinger 2001-2013
</metadata>
<g transform="translate(0.000000,500.000000) scale(0.100000,-0.100000)"
fill="#000000" stroke="none">
<path d="M3570 4475 c-123 -35 -181 -111 -188 -250 -5 -98 9 -154 50 -201 41
-46 90 -70 173 -85 155 -27 287 27 349 142 25 44 28 59 24 117 -7 122 -74 230
-163 268 -56 23 -177 28 -245 9z"/>
<path d="M2050 4114 c-164 -31 -251 -62 -390 -136 -365 -194 -625 -483 -733
-813 -49 -149 -58 -204 -64 -387 -13 -412 57 -637 244 -781 76 -58 114 -76
263 -125 152 -50 251 -66 348 -58 215 20 376 125 465 304 41 82 42 89 42 181
0 110 -13 146 -76 211 -66 68 -134 104 -329 172 -107 38 -219 66 -293 75 -32
3 -60 9 -62 14 -8 12 48 159 87 229 84 150 267 375 387 475 151 127 345 171
572 131 241 -43 595 -312 762 -577 150 -241 56 -929 -215 -1564 -137 -322
-240 -482 -450 -701 -72 -74 -88 -97 -88 -122 0 -58 66 -80 121 -41 l29 20 0
-29 c0 -35 27 -62 62 -62 63 0 445 321 583 490 243 299 420 717 476 1130 17
122 17 417 0 540 -53 393 -184 665 -445 925 -197 197 -344 288 -631 392 -210
77 -328 102 -500 107 -77 3 -151 3 -165 0z"/>
<path d="M3960 3704 c-104 -28 -157 -59 -189 -109 -74 -116 -66 -287 16 -367
69 -67 161 -90 261 -64 167 42 265 141 265 266 1 62 -35 160 -79 217 -52 69
-153 89 -274 57z"/>
<path d="M1356 1624 c-3 -9 -6 -31 -6 -50 l0 -34 -58 0 c-34 0 -66 -6 -79 -15
-21 -15 -43 -82 -43 -132 0 -69 60 -93 126 -52 l34 21 0 -21 c0 -15 6 -21 23
-21 22 0 24 6 41 133 10 72 20 144 23 160 5 25 3 27 -25 27 -18 0 -32 -6 -36
-16z m-22 -166 c-6 -47 -42 -88 -74 -88 -26 0 -31 13 -24 60 8 52 26 70 70 70
l34 0 -6 -42z"/>
<path d="M719 1615 c-34 -18 -59 -72 -66 -140 -12 -119 16 -155 121 -155 69 0
86 7 86 34 0 19 -4 21 -55 18 -72 -5 -85 6 -84 72 2 104 19 127 100 135 55 5
64 9 64 26 0 18 -7 20 -70 22 -46 2 -79 -2 -96 -12z"/>
<path d="M963 1530 c-51 -21 -74 -149 -33 -190 22 -22 99 -28 144 -10 34 13
57 61 58 123 0 67 -22 87 -96 86 -28 0 -61 -4 -73 -9z m91 -36 c36 -14 11
-120 -31 -130 -46 -12 -66 31 -42 93 15 40 37 51 73 37z"/>
<path d="M1493 1528 c-31 -15 -57 -88 -50 -135 9 -54 37 -73 107 -73 71 0 90
7 90 31 0 15 -9 18 -62 21 -50 2 -63 6 -66 21 -3 14 4 17 38 17 22 0 56 7 75
14 32 14 35 19 35 55 0 30 -5 43 -19 51 -25 13 -119 12 -148 -2z m105 -52 c5
-24 -14 -36 -55 -36 -37 0 -40 6 -17 38 20 28 67 27 72 -2z"/>
<path d="M1904 1195 c-9 -23 3 -45 26 -45 20 0 43 36 33 53 -8 13 -54 7 -59
-8z"/>
<path d="M660 1184 c0 -26 40 -276 46 -286 8 -13 80 -10 92 5 9 10 132 285
132 294 0 2 -15 3 -34 3 l-33 0 -47 -122 c-27 -68 -51 -127 -56 -131 -8 -9
-14 22 -25 123 -14 129 -14 130 -46 130 -20 0 -29 -5 -29 -16z"/>
<path d="M973 1095 c-40 -28 -59 -158 -27 -189 21 -22 72 -20 112 4 32 20 32
20 32 0 0 -13 7 -20 20 -20 22 0 24 6 41 124 9 64 8 80 -3 87 -23 15 -151 10
-175 -6z m117 -65 c0 -46 -34 -90 -70 -90 -26 0 -34 20 -26 65 9 44 30 65 67
65 27 0 29 -2 29 -40z"/>
<path d="M1211 1028 c-7 -46 -14 -96 -17 -111 -6 -27 -4 -28 27 -25 34 3 34 3
44 71 10 72 28 97 68 97 18 0 19 -5 13 -71 -4 -39 -10 -77 -13 -85 -4 -10 3
-14 25 -14 33 0 33 0 47 98 7 44 33 72 69 72 17 0 18 -5 12 -52 -4 -29 -9 -68
-12 -85 -6 -31 -5 -33 24 -33 16 0 32 6 35 14 8 19 22 158 18 176 -7 33 -54
40 -103 14 -28 -15 -32 -15 -40 0 -12 22 -66 20 -105 -4 -33 -20 -33 -20 -33
0 0 14 -7 20 -24 20 -22 0 -24 -5 -35 -82z"/>
<path d="M1620 1103 c0 -5 -9 -66 -20 -138 -26 -171 -26 -165 9 -165 28 0 30
3 37 45 l6 45 57 0 c81 0 104 25 109 121 3 45 0 74 -8 84 -17 21 -69 19 -107
-5 -33 -20 -33 -20 -33 0 0 15 -7 20 -25 20 -14 0 -25 -3 -25 -7z m138 -93
c-6 -62 -21 -80 -66 -80 l-35 0 7 48 c7 53 33 82 73 82 25 0 25 -2 21 -50z"/>
<path d="M1881 1028 c-7 -46 -14 -95 -17 -110 -5 -26 -3 -28 25 -28 34 0 34
-1 51 117 14 102 14 103 -19 103 -28 0 -29 -1 -40 -82z"/>
<path d="M1999 1000 l-15 -110 32 0 32 0 7 65 c6 54 12 69 33 86 32 25 68 22
65 -6 -1 -11 -5 -48 -9 -82 l-6 -63 30 0 29 0 13 95 c10 76 10 98 0 110 -17
21 -69 19 -108 -5 -40 -25 -42 -25 -42 0 0 14 -7 20 -23 20 -22 0 -24 -6 -38
-110z"/>
<path d="M2312 1103 c-38 -15 -65 -146 -38 -188 22 -33 81 -35 121 -3 l27 21
-7 -24 c-13 -42 -38 -59 -100 -67 -43 -5 -60 -11 -60 -22 0 -11 15 -16 61 -18
118 -6 141 20 164 183 16 113 16 114 -4 119 -26 7 -146 6 -164 -1z m113 -75
c-9 -54 -40 -90 -75 -86 -23 3 -25 7 -22 43 5 59 25 85 68 85 l36 0 -7 -42z"/>
</g>
</svg>
